<?xml version="1.0" encoding="UTF-8"?>
<svg fill="none" version="1.1" viewBox="0 0 210.92 61" xmlns="http://www.w3.org/2000/svg" xmlns:cc="http://creativecommons.org/ns#" xmlns:dc="http://purl.org/dc/elements/1.1/" xmlns:rdf="http://www.w3.org/1999/02/22-rdf-syntax-ns#">
  <title>AOP Mapper Logo</title>
  <defs>
    <marker id="arrowhead" markerHeight="4" markerWidth="6" orient="auto" refX="5" refY="2">
      <polygon points="0 0 6 2 0 4" fill="#4f46e5"/>
    </marker>
  </defs>
  <g stroke="#4f46e5" stroke-width="2">
    <circle cx="13" cy="13" r="12" fill="#6366f1"/>
    <circle cx="63" cy="13" r="12" fill="#818cf8"/>
    <circle cx="113" cy="13" r="12" fill="#a78bfa"/>
    <circle cx="63" cy="48" r="12" fill="#f59e0b"/>
    <line x1="25" x2="51" y1="13" y2="13" marker-end="url(#arrowhead)"/>
    <line x1="75" x2="101" y1="13" y2="13" marker-end="url(#arrowhead)"/>
    <line x1="63" x2="63" y1="25" y2="41" marker-end="url(#arrowhead)"/>
    <line x1="103" x2="73" y1="21" y2="45" marker-end="url(#arrowhead)"/>
  </g>
  <path d="m134.62 31.874 9.6262-27.425h7.2887l9.6262 27.425h-6.2764l-4.3069-13.344q-0.79145-2.632-1.6381-5.4113-0.82826-2.7977-1.8038-6.35h1.5645q-1.0123 3.5523-1.859 6.35-0.82826 2.7793-1.6565 5.4113l-4.4542 13.344zm6.1107-5.9819v-4.5278h14.338v4.5278zm33.193 6.4236q-3.6812 0-6.6076-1.7117-2.9265-1.7301-4.6198-4.8959-1.6933-3.1842-1.6933-7.5279 0-4.3806 1.6933-7.5463 1.6933-3.1842 4.6198-4.8959 2.9265-1.7301 6.6076-1.7301 3.6996 0 6.626 1.7301 2.9265 1.7117 4.6198 4.8959 1.6933 3.1658 1.6933 7.5463 0 4.3622-1.6933 7.5279-1.6933 3.1658-4.6198 4.8959-2.9265 1.7117-6.626 1.7117zm0-5.0064q2.1166 0 3.7548-1.0675 1.6381-1.0675 2.5584-3.1106 0.92028-2.043 0.92028-4.9511 0-2.9265-0.92028-4.9695-0.92029-2.0614-2.5584-3.129-1.6381-1.0675-3.7548-1.0675-2.0982 0-3.7364 1.0675-1.6197 1.0675-2.5584 3.129-0.92028 2.043-0.92028 4.9695 0 2.9081 0.92028 4.9511 0.93869 2.043 2.5584 3.1106 1.6381 1.0675 3.7364 1.0675zm16.142 4.5646v-27.425h10.823q3.0922 0 5.3376 1.1043 2.2455 1.0859 3.4603 3.1106 1.2332 2.0062 1.2332 4.7855 0 2.7609-1.2332 4.7855-1.2332 2.0062-3.5155 3.1106-2.2639 1.1043-5.3561 1.1043h-7.6016v-4.7487h7.3071q1.5093 0 2.5952-0.51536 1.0859-0.53377 1.6749-1.4909t0.58898-2.2455q0-1.3252-0.58898-2.2639t-1.6749-1.4541q-1.0859-0.53377-2.5952-0.53377h-4.7855v22.676z" style="fill:#4f46e5;stroke-width:.99999" aria-label="AOP"/>
  <path d="m103.19 55.489v-18.885h3.1052l4.7909 12.193q0.16477 0.40558 0.39291 1.0013 0.22814 0.5957 0.46896 1.2421 0.24081 0.6464 0.45628 1.2294 0.21546 0.57035 0.34221 0.93791h-0.51965q0.12674-0.36756 0.32953-0.93791 0.21547-0.58303 0.45628-1.2294 0.24082-0.6464 0.46896-1.2421 0.22814-0.5957 0.38023-1.0013l4.7149-12.193h3.1179v18.885h-2.2434v-10.951q0-0.60837 0-1.3055 0.0127-0.6971 0.0253-1.4322 0.0254-0.73512 0.038-1.4829 0.0254-0.74779 0.038-1.4576h0.31686q-0.31686 0.88721-0.62105 1.7237-0.30419 0.83651-0.58303 1.5716-0.26616 0.73512-0.4943 1.3435-0.22814 0.5957-0.40558 1.0393l-4.3854 10.951h-1.8758l-4.4107-10.951q-0.17744-0.44361-0.41826-1.0393-0.22814-0.60837-0.50698-1.3435t-0.5957-1.5716q-0.31686-0.83652-0.65907-1.7237h0.43093q0.0254 0.70977 0.038 1.4576 0.0127 0.74779 0.0254 1.4829 0.0253 0.73512 0.0253 1.4322 0.0127 0.6971 0.0127 1.3055v10.951zm26.059 0.20279q-1.3308 0-2.3828-0.45628t-1.673-1.3562q-0.60837-0.91256-0.60837-2.2434 0-1.1534 0.4436-1.8758 0.45628-0.72244 1.2041-1.128 0.76047-0.41826 1.711-0.63372 0.96326-0.21547 1.9645-0.34221 1.2801-0.17744 2.0152-0.26616 0.73512-0.08872 1.0393-0.29151 0.31686-0.20279 0.31686-0.70977v-0.12674q0-0.73512-0.35489-1.2928-0.34221-0.57035-1.014-0.88721-0.65907-0.32954-1.597-0.32954-0.92524 0-1.6477 0.31686-0.70976 0.30419-1.1407 0.83652-0.41825 0.53233-0.46895 1.2041h-2.1927q0.0634-1.2294 0.76046-2.18 0.6971-0.96326 1.9012-1.5209 1.2041-0.55768 2.7884-0.55768 1.166 0 2.104 0.31686 0.95058 0.31686 1.6096 0.89989 0.67175 0.58303 1.0266 1.3942 0.35489 0.81117 0.35489 1.7998v9.227h-2.1293v-1.9012h-0.0507q-0.24081 0.48163-0.70977 0.97593-0.46895 0.48163-1.2674 0.81117-0.78582 0.31686-2.0026 0.31686zm0.30419-1.9265q1.3181 0 2.142-0.46896 0.82384-0.48163 1.2041-1.2421 0.38023-0.76047 0.38023-1.635v-1.673q-0.12675 0.11407-0.46896 0.21547-0.32953 0.1014-0.82384 0.20279-0.48163 0.08872-1.052 0.17744-0.55767 0.08872-1.128 0.16477-0.77315 0.1014-1.4702 0.35488-0.68442 0.24081-1.1154 0.6971-0.43094 0.44361-0.43094 1.2041 0 0.62105 0.32954 1.0773 0.34221 0.44361 0.96326 0.68442 0.62105 0.24082 1.4702 0.24082zm9.0496 7.0217v-18.682h2.104v1.9772h0.0254q0.43094-0.74779 1.09-1.2421t1.4702-0.73512q0.81116-0.25349 1.673-0.25349 1.7491 0 3.0546 0.87454t2.0279 2.4462q0.72245 1.559 0.72245 3.6249 0 2.0533-0.72245 3.6249-0.72244 1.559-2.0279 2.4462-1.3055 0.87454-3.0546 0.87454-0.86186 0-1.635-0.25349-0.77314-0.24082-1.4195-0.74779-0.6464-0.50698-1.128-1.2801h-0.0254v7.3258zm6.033-6.9836q1.166 0 2.0533-0.57035t1.3942-1.6857 0.50698-2.7504q0-1.6477-0.50698-2.763-0.50698-1.1154-1.3942-1.6857t-2.0533-0.57035q-1.2421 0-2.1547 0.62105t-1.4069 1.7491q-0.4943 1.128-0.4943 2.649 0 1.5083 0.4943 2.6363 0.49431 1.128 1.4069 1.7491t2.1547 0.62105zm8.644 6.9836v-18.682h2.104v1.9772h0.0254q0.43093-0.74779 1.09-1.2421 0.65907-0.4943 1.4702-0.73512 0.81117-0.25349 1.673-0.25349 1.7491 0 3.0546 0.87454t2.0279 2.4462q0.72245 1.559 0.72245 3.6249 0 2.0533-0.72245 3.6249-0.72244 1.559-2.0279 2.4462-1.3055 0.87454-3.0546 0.87454-0.86186 0-1.635-0.25349-0.77314-0.24082-1.4195-0.74779-0.6464-0.50698-1.128-1.2801h-0.0254v7.3258zm6.033-6.9836q1.166 0 2.0533-0.57035t1.3942-1.6857 0.50698-2.7504q0-1.6477-0.50698-2.763-0.50698-1.1154-1.3942-1.6857t-2.0533-0.57035q-1.2421 0-2.1547 0.62105t-1.4069 1.7491q-0.4943 1.128-0.4943 2.649 0 1.5083 0.4943 2.6363 0.49431 1.128 1.4069 1.7491t2.1547 0.62105zm14.17 1.9899q-1.9645 0-3.3587-0.89989-1.3815-0.89989-2.1166-2.4715-0.73512-1.5843-0.73512-3.5995 0-2.0406 0.77314-3.6249t2.142-2.4842q1.3688-0.91256 3.1433-0.91256 1.3942 0 2.5095 0.50698 1.128 0.50698 1.9265 1.4449 0.79849 0.93791 1.2168 2.2307 0.43093 1.2801 0.43093 2.8391v0.5957h-11.001v-1.8505h9.7974l-0.92524 0.6464q0-1.3688-0.4943-2.3701-0.48163-1.014-1.3688-1.559-0.88722-0.55768-2.0913-0.55768-1.1914 0-2.0786 0.55768-0.87454 0.545-1.3688 1.559-0.48163 1.0013-0.48163 2.3701v0.91256q0 1.3815 0.46895 2.4462 0.48163 1.0647 1.3942 1.673 0.91256 0.5957 2.218 0.5957 0.95059 0 1.673-0.29151 0.72245-0.30419 1.1914-0.83651 0.48163-0.53233 0.68442-1.2294h2.1547q-0.25349 1.2801-1.052 2.2561-0.79849 0.96326-2.0026 1.5083-1.1914 0.545-2.649 0.545zm8.3905-0.30419v-13.384h2.0533v2.104h0.0507q0.36756-1.0393 1.166-1.673 0.7985-0.63372 2.0533-0.63372 0.29151 0 0.53232 0.02535 0.25349 0.02535 0.38024 0.0507v2.1547q-0.12675-0.03802-0.49431-0.08872-0.35488-0.06337-0.82384-0.06337-0.73511 0-1.3688 0.34221-0.63372 0.34221-1.014 1.0647-0.38023 0.72244-0.38023 1.8631v8.2384z" style="fill:#4f46e5" aria-label="Mapper"/>
  <circle cx="63" cy="48" r="3" fill="#fff"/>
  <line x1="57" x2="69" y1="48" y2="48" stroke="#fff" stroke-width="3"/>
  <line x1="63" x2="63" y1="42" y2="54" stroke="#fff" stroke-width="3"/>
  <metadata>
    <rdf:RDF>
      <cc:Work rdf:about="">
        <dc:title>AOP Mapper Logo</dc:title>
      </cc:Work>
    </rdf:RDF>
  </metadata>
</svg>
